<svg id="Layer_1" enable-background="new 0 0 512 512" height="512" viewBox="0 0 512 512" width="512" xmlns="http://www.w3.org/2000/svg"><circle cx="256" cy="47.133" fill="#ffa222" r="47.134"/><path d="m303.134 47.133c0-25.989-21.145-47.133-47.134-47.133v94.267c25.989 0 47.134-21.144 47.134-47.134z" fill="#ff7241"/><path d="m432.733 383.467h-353.466.008-.008c-8.284 0-15-6.716-15-15s6.716-15 15-15c10.668 0 19.596-7.993 20.775-18.592l16.164-145.497c7.924-71.325 68.016-125.111 139.777-125.111 71.795 0 131.887 53.786 139.811 125.111l16.164 145.502c1.18 10.594 10.107 18.587 20.768 18.587h.008c8.284 0 15 6.716 15 15s-6.716 15-15.001 15z" fill="#ffd738"/><path d="m447.733 368.467c0-8.284-6.716-15-15-15h-.008c-10.66 0-19.588-7.993-20.768-18.587l-16.164-145.502c-7.922-71.32-68.005-125.103-139.793-125.111v319.2h176.733c8.285 0 15-6.716 15-15z" fill="#ffa222"/><path d="m256 512c-43.715 0-79.267-35.552-79.267-79.25 0-8.284 6.716-15.016 15-15.016h128.533c8.284 0 15 6.716 15 15 .001 43.707-35.558 79.266-79.266 79.266z" fill="#ff7241"/><path d="m335.267 432.733c0-8.284-6.716-15-15-15h-64.267v94.267c43.708 0 79.267-35.559 79.267-79.267z" fill="#ff4f5a"/><path d="m432.733 447.733h-353.466c-25.989 0-47.133-21.144-47.133-47.133s21.144-47.133 47.133-47.133h353.467c25.989 0 47.133 21.144 47.133 47.133s-21.144 47.133-47.134 47.133z" fill="#ffa222"/><path d="m479.866 400.6c0-25.989-21.144-47.133-47.133-47.133h-176.733v94.267h176.733c25.99-.001 47.133-21.145 47.133-47.134z" fill="#ff7241"/></svg>